<svg fill="none" height="24" viewBox="0 0 24 24" width="24" xmlns="http://www.w3.org/2000/svg"><path d="m21.8844 15.2984c-.1566 1.7331-.4084 3.1414-.7147 4.3979-.2042 1.2566-1.4294 2.3037-2.7566 2.3037h-1.6336c-.9189 0-1.6336-.733-1.6336-1.6754v-4.2932c0-1.0471-.8168-1.8848-1.8378-1.8848h-2.3483c-1.02096 0-1.83775.8377-1.83775 1.8848v4.2932c0 .9424-.71469 1.6754-1.63358 1.6754h-1.93988c-1.32729 0-2.45038-.9424-2.75668-2.3037-.30629-1.3612-.57186-2.6636-.71469-4.3979-.18126-2.201 0-4.2932.1021-5.65442 0-.8377.5105-1.67539 1.22519-2.19895l7.14689-4.92147c.4084-.31414.9189-.52356 1.4294-.52356s1.1231.20942 1.5315.52356l7.1469 4.92147c.7147.52356 1.2252 1.36125 1.2252 2.19895.1021 1.36122.1987 3.45532 0 5.65442z" fill="#030d45"/></svg>