<svg fill="none" height="24" viewBox="0 0 24 24" width="24" xmlns="http://www.w3.org/2000/svg"><path d="m21.9329 11.6907c-.1023-2.26802-.5111-5.25771-.8178-7.31957-.2044-1.3402-1.3289-2.37113-2.7599-2.37113h-12.67529c-1.43107 0-2.55549 1.03093-2.75993 2.37113-.30666 2.16495-.61332 5.05155-.81776 7.31957-.10222 2.165-.10222 5.1547-.10222 7.3196 0 1.4433 1.12442 2.5773 2.55549 2.6804 2.14662.2062 5.11099.3093 7.35981.3093 2.2489 0 5.2132-.2062 7.3598-.3093 1.4311-.1031 2.5555-1.2371 2.5555-2.6804.2045-2.1649.2045-5.1546.1023-7.3196zm-9.9154.1031c-2.65768 0-4.90651-2.16493-4.90651-4.94844 0-.41237.30666-.82474.81776-.82474s.81776.41237.81776.82474c0 1.85567 1.53329 3.29894 3.27099 3.29894 1.7378 0 3.2711-1.54636 3.2711-3.29894 0-.41237.3066-.82474.8177-.82474s.8178.30928.8178.82474c0 2.68041-2.2488 4.94844-4.9066 4.94844z" fill="#030d45"/></svg>